<svg width="1047" height="1129" viewBox="0 0 1047 1129" fill="none" xmlns="http://www.w3.org/2000/svg">
<path d="M933.361 211.645C948.789 240.971 985.07 252.238 1014.4 236.81C1043.72 221.381 1054.99 185.101 1039.56 155.774L986.461 183.71L933.361 211.645ZM667.737 107.687L632.045 59.4576L631.609 59.7804L631.179 60.1111L667.737 107.687ZM530.169 743.97L589.941 749.192L589.941 749.192L530.169 743.97ZM219.989 1058.47L203.767 1116.24L203.767 1116.24L219.989 1058.47ZM244.741 441.618C267.729 417.752 267.018 379.769 243.151 356.78C219.285 333.792 181.302 334.504 158.313 358.37L201.527 399.994L244.741 441.618ZM986.461 183.71L1039.56 155.774C999.145 78.9492 935.486 25.6359 859.574 7.22032C783.389 -11.2611 702.538 7.28958 632.045 59.4576L667.737 107.687L703.43 155.916C749.07 122.14 793.953 114.782 831.284 123.838C868.886 132.96 906.523 160.63 933.361 211.645L986.461 183.71ZM667.737 107.687L631.179 60.1111C579.493 99.8277 546.942 158.04 525.633 218.416C504.178 279.209 492.313 347.358 485.355 413.165C478.368 479.247 476.109 545.324 474.813 602.377C473.478 661.106 473.158 707.142 470.396 738.747L530.169 743.97L589.941 749.192C593.148 712.482 593.539 659.786 594.782 605.103C596.063 548.745 598.246 486.731 604.69 425.782C611.163 364.558 621.717 306.735 638.793 258.353C656.015 209.555 678.105 175.389 704.296 155.263L667.737 107.687ZM530.169 743.97L470.396 738.747C464.998 800.534 443.211 882.73 402.23 940.245C382.232 968.311 359.444 988.051 334.174 998.623C309.745 1008.84 278.275 1012.52 236.21 1000.71L219.989 1058.47L203.767 1116.24C269.027 1134.56 328.499 1131.08 380.487 1109.33C431.633 1087.93 470.736 1050.89 499.96 1009.88C557.423 929.231 583.401 824.037 589.941 749.192L530.169 743.97ZM219.989 1058.47L236.21 1000.71C168.733 981.758 121.785 902.808 120.954 778.186C120.149 657.568 165.217 524.18 244.741 441.618L201.527 399.994L158.313 358.37C53.0118 467.693 -0.014325 633.406 0.956561 778.986C1.90074 920.562 56.5967 1074.91 203.767 1116.24L219.989 1058.47Z" fill="url(#paint0_linear_116_72)"/>
<defs>
<linearGradient id="paint0_linear_116_72" x1="928.242" y1="362.469" x2="88.9479" y2="804.011" gradientUnits="userSpaceOnUse">
<stop stop-color="#F472B6"/>
<stop offset="0.492157" stop-color="#D8B4FE"/>
<stop offset="1" stop-color="#99F6E4"/>
</linearGradient>
</defs>
</svg>
