<svg width="1028" height="799" viewBox="0 0 1028 799" fill="none" xmlns="http://www.w3.org/2000/svg">
<g clip-path="url(#clip0_374_171)">
<path opacity="0.1" d="M1007.48 212.56C997.309 188.954 983.565 167.054 966.73 147.63L401.36 142.06L866.85 76.6801C836.779 64.7046 804.765 58.3526 772.4 57.9401C727.871 22.3475 673.043 2.07985 616.07 0.151985C559.097 -1.77588 503.023 14.739 456.19 47.2401C418.763 27.9997 377.273 18.001 335.19 18.0801C209.57 18.0801 104.89 105.08 81.4102 220.46L1007.48 212.56Z" fill="#A228FF"/>
<path opacity="0.1" d="M1027.36 309.32C1027.39 278.033 1021.41 247.031 1009.74 218L29.8802 320.85C19.7759 339.125 12.0467 358.616 6.8802 378.85L310.31 424.09L-0.0498047 457.09C9.2902 587.7 121.26 690.84 258.04 690.84C326.89 690.84 389.46 664.7 435.81 622.08C482.32 665.51 545.48 692.21 615.07 692.21C718.33 692.21 807.45 633.42 848.95 548.41C932.22 521.99 996.9 455.63 1019.04 372.62L635.36 313.06H1027.36C1027.34 311.81 1027.36 310.57 1027.36 309.32Z" fill="#A228FF"/>
<path d="M286.68 798.89C412.048 798.89 513.68 782.23 513.68 761.68C513.68 741.129 412.048 724.47 286.68 724.47C161.311 724.47 59.6797 741.129 59.6797 761.68C59.6797 782.23 161.311 798.89 286.68 798.89Z" fill="#6CC8BE"/>
<path d="M521.45 521.98C511.24 524.54 500.76 519.56 500.76 519.56C500.76 519.56 491.82 509.21 484.28 507.81C476.74 506.41 473.82 518.66 469.34 521.81C466.24 524.02 443.88 522.44 430.34 521.26L428.01 521.05C427.78 520.88 427.55 520.7 427.3 520.54C427.3 520.54 414.3 516.54 411.59 513C408.88 509.46 390.77 502.91 385.15 503.29C379.53 503.67 362.92 504.57 362.92 504.57C362.92 504.57 356.41 497.16 353.47 497.93C350.53 498.7 340.31 497.87 340.31 497.87C340.31 497.87 337.5 490.65 334.69 480.3C333.38 475.47 329.02 472.08 324.75 469.85C328.59 456.85 321.75 419.77 300.51 412.52C295.88 410.94 293.51 405.69 289.57 402.81C286.04 400.24 280.26 394.18 283.09 383.23C287.09 367.9 297.01 343.76 297.01 343.76L304.4 329C303.711 330.046 302.928 331.026 302.06 331.93C303.06 330.65 304.06 329.39 304.92 328.33C312.295 332.055 320.338 334.271 328.58 334.85C336.92 338.22 345.25 341.19 348.49 341.08C355.9 340.82 374.8 350.28 374.8 350.28C374.8 350.28 420.27 363.28 429.72 364.33C439.17 365.38 443.77 353.09 443.77 353.09C443.77 353.09 448.68 328.86 439.96 322.44C431.24 316.02 426.17 345.44 426.17 345.44L366.68 324L363.01 322.07C365.86 319.055 368.122 315.535 369.68 311.69C370.6 309.4 371.44 306.78 373.63 305.64C374.219 305.347 374.856 305.161 375.51 305.09C376.053 305.055 376.597 305.055 377.14 305.09C387.46 305.72 396.33 313.84 406.67 313.88C407.05 313.88 407.43 313.88 407.81 313.88C409.781 313.874 411.706 313.282 413.34 312.18C414.263 311.429 415.021 310.497 415.568 309.44C416.115 308.384 416.439 307.227 416.52 306.04C416.369 306.362 416.203 306.675 416.02 306.98C416.29 305.509 416.29 304.001 416.02 302.53C415.38 299.02 413.55 295.87 411.91 292.7C411.446 291.96 411.184 291.112 411.15 290.24C411.197 289.785 411.335 289.343 411.557 288.943C411.778 288.543 412.079 288.191 412.44 287.91C412.455 288.004 412.475 288.098 412.5 288.19C413.28 287.457 414.146 286.822 415.08 286.3C417.608 284.642 419.768 282.483 421.426 279.956C423.084 277.429 424.205 274.588 424.72 271.61C424.47 272.35 424.17 273.08 423.85 273.8C425.388 268.724 425.015 263.26 422.8 258.44C422.227 257.068 421.311 255.867 420.14 254.95C416.41 252.33 411.4 255.12 406.85 255.42C402.85 255.68 398.97 253.89 395.36 252.08C389.2 248.99 383.07 245.65 377.94 241.08C372.11 235.85 367.78 229.18 362.52 223.39C357.26 217.6 350.51 212.44 342.68 211.86C328.45 210.76 315.03 224.86 301.5 220.26C294.9 218.03 290.56 211.93 285.97 206.69C281.38 201.45 275.07 196.42 268.19 197.55C263.41 198.35 259.27 202.06 254.43 201.92C251.9 201.84 249.55 200.71 247.15 199.92C241.34 197.97 233.38 198.92 231.31 204.7C230.903 205.877 230.76 207.129 230.889 208.368C231.019 209.607 231.419 210.802 232.06 211.87C231.754 212.299 231.48 212.751 231.24 213.22C230.743 214.136 230.57 215.193 230.75 216.22C226.638 219.911 223.59 224.638 221.926 229.908C220.261 235.178 220.04 240.798 221.286 246.182C222.532 251.566 225.199 256.517 229.01 260.52C232.82 264.523 237.634 267.43 242.95 268.94C243.14 269.67 243.33 270.4 243.51 271.14C245.45 279.31 246.46 288.51 243.59 294.71C243.41 295.09 243.22 295.46 243.01 295.82L242.76 295.93L242.4 295.56L240.22 293.28C240.1 290.9 238.76 284.52 229.44 272.68C217.17 257.09 214.87 231.29 214.87 231.29C214.87 231.29 211.81 218.01 214.87 214.18C217.93 210.35 223.05 168.18 223.05 168.18L231.51 144.44C231.51 144.44 272.64 102.54 255.51 97.44C243.88 93.97 230.01 111.85 222.31 123.67C218.528 129.474 216.082 136.046 215.15 142.91L191.9 206.52C191.9 206.52 189.6 214.19 191.9 227.47C194.2 240.75 199.31 264.26 199.31 264.26L212.31 297.21C212.31 297.21 217.1 311.44 216.68 317.62C216.11 317.99 214.11 321.95 212.38 325.55L211.11 327.55L211.02 328.36C210.17 330.17 209.58 331.47 209.58 331.47C209.58 331.47 202.34 352.84 208.39 365.95C214.44 379.06 214.68 385.14 214.68 385.14L219.19 404.56L221.07 421.56L237.29 461.67L252.23 483C252.23 483 250.83 498.71 247.76 500.88C244.69 503.05 246.1 514.29 246.1 514.29L244.18 543.79C244.18 543.79 238.18 552.61 237.8 566.91C237.42 581.21 235.24 585.31 235.24 585.31C235.24 585.31 234.24 597.31 237.03 602.81C239.82 608.31 232.56 614.05 232.56 614.05L238.79 635.44L236.36 662.52C236.36 662.52 237.49 662.83 239.36 663.3L238.98 665.24L228.82 716.54C228.82 716.54 223.33 730.6 223.08 733.91L205.32 765.98C205.32 765.98 190.5 780.67 197.53 782.07C204.56 783.47 225 770.83 225 770.83C225 770.83 241.86 752.69 248.5 751.04C255.14 749.39 262.5 744.64 260.38 737.75C258.26 730.86 253.38 720.38 258.08 709.26C261.08 702.26 267.46 683.26 271.84 670C272.08 669.27 272.31 668.57 272.54 667.89C273.699 667.786 274.844 667.568 275.96 667.24C286.69 663.92 292.31 666.24 292.31 666.24L311.47 588.71L315.68 549.81L342.51 572.19C347.819 576.617 354.409 579.222 361.31 579.62C371.88 580.24 388.37 581.77 400.31 585.46L405.31 564.64C405.31 564.64 419.61 565.16 422.68 560.3C423.93 558.3 425.16 556.6 426.17 555.3L428.49 554.94L491.78 545.15C503.53 545.15 519.63 537.22 519.63 537.22L529.47 535.31C529.47 535.31 544.15 532.37 545.47 529.94C546.79 527.51 531.68 519.44 521.45 521.98Z" fill="url(#paint0_linear_374_171)"/>
<path d="M234.26 209.71C236.26 204.07 244.08 203.12 249.77 205.03C252.11 205.81 254.42 206.92 256.89 207.03C261.63 207.17 265.68 203.53 270.36 202.76C277.09 201.64 283.26 206.56 287.75 211.69C292.24 216.82 296.5 222.79 302.96 224.98C316.19 229.44 329.33 215.68 343.25 216.75C350.89 217.34 357.49 222.37 362.64 228.04C367.79 233.71 372.03 240.23 377.73 245.35C382.73 249.85 388.73 253.12 394.78 256.15C398.31 257.92 402.08 259.67 406.02 259.41C410.48 259.12 415.38 256.41 419.02 258.95C420.165 259.848 421.061 261.026 421.62 262.37C426.1 271.69 422.49 284.1 413.72 289.58C412.19 290.53 410.33 291.58 410.24 293.41C410.268 294.265 410.524 295.096 410.98 295.82C412.58 298.92 414.38 302.01 414.98 305.44C415.58 308.87 414.77 312.82 411.98 314.9C410.158 316.112 407.995 316.704 405.81 316.59C395.69 316.54 387.01 308.59 376.91 307.98C375.618 307.832 374.309 308.032 373.12 308.56C370.98 309.67 370.12 312.24 369.25 314.48C364.57 326.17 352.95 334.3 340.55 336.53C328.15 338.76 315.2 335.62 304.1 329.66C303.288 329.272 302.543 328.759 301.89 328.14C300.963 327.014 300.31 325.69 299.98 324.27C296.58 313.52 291.98 302.27 282.56 296.06C276.45 292.06 268.16 289.81 265.39 283.06C263.65 278.79 264.74 273.94 264.3 269.34C263.867 265.396 262.33 261.654 259.866 258.544C257.402 255.435 254.11 253.083 250.37 251.76C248.73 251.21 246.93 250.82 245.73 249.57C244.756 248.343 244.133 246.874 243.93 245.32C242.44 238.55 241.45 231.4 239.37 224.79C237.78 219.61 232.13 215.64 234.26 209.71Z" fill="#331200"/>
<g opacity="0.1">
<path d="M413.15 311.79C411.322 312.985 409.16 313.563 406.98 313.44C396.87 313.44 388.19 305.44 378.09 304.84C376.798 304.688 375.49 304.885 374.3 305.41C372.15 306.52 371.3 309.09 370.43 311.33C365.75 323.03 354.12 331.16 341.72 333.39C329.32 335.62 316.37 332.48 305.28 326.52C304.469 326.131 303.723 325.618 303.07 325C302.145 323.873 301.491 322.549 301.16 321.13C297.76 310.37 293.16 299.13 283.74 292.91C277.62 288.86 269.33 286.67 266.57 279.91C264.82 275.63 265.91 270.78 265.48 266.19C265.048 262.244 263.51 258.5 261.044 255.39C258.578 252.28 255.283 249.93 251.54 248.61C249.9 248.06 248.1 247.66 246.9 246.42C245.924 245.191 245.305 243.717 245.11 242.16C243.61 235.4 242.63 228.24 240.55 221.64C239.15 217.22 234.74 213.64 234.96 208.92C234.83 209.169 234.717 209.426 234.62 209.69C232.48 215.62 238.14 219.59 239.75 224.69C241.83 231.29 242.81 238.45 244.31 245.21C244.505 246.767 245.124 248.241 246.1 249.47C247.3 250.71 249.1 251.11 250.74 251.66C254.485 252.98 257.78 255.332 260.247 258.444C262.713 261.556 264.25 265.302 264.68 269.25C265.11 273.84 264.02 278.69 265.77 282.97C268.53 289.76 276.82 291.97 282.94 295.97C292.34 302.2 296.94 313.43 300.36 324.19C300.691 325.609 301.345 326.933 302.27 328.06C302.923 328.678 303.669 329.191 304.48 329.58C315.57 335.58 328.48 338.67 340.92 336.45C353.36 334.23 364.92 326.09 369.63 314.39C370.53 312.15 371.36 309.58 373.5 308.47C374.69 307.945 375.998 307.748 377.29 307.9C387.39 308.51 396.07 316.46 406.18 316.5C408.363 316.614 410.526 316.025 412.35 314.82C413.253 314.087 413.997 313.177 414.534 312.144C415.07 311.112 415.389 309.981 415.47 308.82C414.964 309.993 414.165 311.016 413.15 311.79Z" fill="black"/>
<path d="M414.889 286.44C413.359 287.44 411.489 288.44 411.399 290.27C411.39 290.637 411.448 291.003 411.569 291.35C412.329 290.631 413.176 290.009 414.089 289.5C416.563 287.88 418.677 285.768 420.299 283.296C421.921 280.824 423.017 278.044 423.519 275.13C422.041 279.786 418.99 283.784 414.889 286.44Z" fill="black"/>
</g>
<path d="M260.43 703.44C255.8 714.32 260.56 724.56 262.68 731.32C264.8 738.08 257.56 742.69 251.06 744.32C244.56 745.95 228.06 763.69 228.06 763.69C228.06 763.69 208.06 776.06 201.18 774.69C194.3 773.32 208.8 758.94 208.8 758.94L226.18 727.56C226.43 724.32 231.8 710.56 231.8 710.56L241.74 660.36L243.06 653.69L278.3 651.56C278.3 651.56 276.45 657.28 273.9 665.01C269.61 678.01 263.33 696.65 260.43 703.44Z" fill="#CC818C"/>
<path d="M541.68 527.97C540.43 530.35 526.06 533.22 526.06 533.22L516.43 535.09C516.43 535.09 500.68 542.85 489.18 542.85L427.24 552.44L418.93 553.73V518.59C418.93 518.59 423.11 519.03 429.03 519.59C442.26 520.75 464.15 522.29 467.18 520.13C471.56 517.01 474.43 505.01 481.8 506.39C489.17 507.77 497.93 517.89 497.93 517.89C497.93 517.89 508.18 522.76 518.18 520.26C528.18 517.76 542.93 525.59 541.68 527.97Z" fill="#CC818C"/>
<path opacity="0.1" d="M429.43 549.72C429.43 549.72 428.54 550.72 427.24 552.43L418.93 553.72V518.59C418.93 518.59 423.11 519.03 429.03 519.59C438.97 527.44 429.43 549.72 429.43 549.72Z" fill="black"/>
<path d="M309.81 541.6L343.08 569.36C348.276 573.692 354.726 576.24 361.48 576.63C371.82 577.24 387.96 578.73 399.68 582.35L404.56 561.97C404.56 561.97 418.56 562.47 421.56 557.72C423.322 554.916 425.283 552.242 427.43 549.72C427.43 549.72 437.56 526.1 426.06 518.85C426.06 518.85 413.31 514.97 410.68 511.47C408.05 507.97 390.31 501.6 384.81 501.97C379.31 502.34 363.06 503.22 363.06 503.22C363.06 503.22 356.68 495.97 353.81 496.72C350.94 497.47 340.93 496.72 340.93 496.72C340.93 496.72 338.18 489.65 335.43 479.52C332.68 469.39 316.31 465.77 316.31 465.77L309.81 541.6Z" fill="#A34750"/>
<path opacity="0.1" d="M309.81 541.6L343.08 569.36C348.276 573.692 354.726 576.24 361.48 576.63C371.82 577.24 387.96 578.73 399.68 582.35L404.56 561.97C404.56 561.97 418.56 562.47 421.56 557.72C423.322 554.916 425.283 552.242 427.43 549.72C427.43 549.72 437.56 526.1 426.06 518.85C426.06 518.85 413.31 514.97 410.68 511.47C408.05 507.97 390.31 501.6 384.81 501.97C379.31 502.34 363.06 503.22 363.06 503.22C363.06 503.22 356.68 495.97 353.81 496.72C350.94 497.47 340.93 496.72 340.93 496.72C340.93 496.72 338.18 489.65 335.43 479.52C332.68 469.39 316.31 465.77 316.31 465.77L309.81 541.6Z" fill="#F16977"/>
<path d="M294.93 292.72L291.25 293.41H291.02L290.48 293.51L284.18 294.68L282.24 296.98L282.16 297.06L275.93 304.44L270.68 309.59L270.63 309.65L266.19 313.97L258.68 321.44L257.42 324.55L254.68 331.44L253.97 333.19L246.47 341.19L241.68 351.44L230.48 357.94L218.43 351.69L212.93 343.69L214.18 332.23L214.43 329.94L218.1 324.05L221.43 318.69L227.93 309.44L240.43 300.94L242.67 300.35L245.18 299.69C245.372 299.416 245.548 299.133 245.71 298.84C245.921 298.488 246.112 298.124 246.28 297.75C249.09 291.69 248.1 282.68 246.2 274.69C244.743 268.713 242.814 262.861 240.43 257.19L273.43 252.44C273.43 252.44 273.11 258.84 273.11 268.82C273.11 271.32 273.11 274.03 273.18 276.93C273.34 285.93 281.7 289.83 288.01 291.49C289.635 291.923 291.284 292.257 292.95 292.49C294.17 292.68 294.93 292.72 294.93 292.72Z" fill="#CC818C"/>
<path d="M242.93 297.44C242.93 297.44 244.43 291.44 232.43 276.19C220.43 260.94 218.18 235.69 218.18 235.69C218.18 235.69 215.18 222.69 218.18 218.94C221.18 215.19 226.18 173.94 226.18 173.94L234.43 150.69C234.43 150.69 274.68 109.69 257.93 104.69C246.55 101.29 232.93 118.8 225.44 130.36C221.74 136.041 219.349 142.472 218.44 149.19L195.68 211.44C195.68 211.44 193.43 218.94 195.68 231.94C197.93 244.94 202.93 267.94 202.93 267.94L215.68 300.22C215.68 300.22 222.39 320.32 218.91 322.77L226.68 311.28L242.93 297.44Z" fill="#CC818C"/>
<path d="M442.18 354.97C442.18 354.97 437.68 366.97 428.43 365.97C419.18 364.97 374.68 352.22 374.68 352.22C374.68 352.22 356.18 342.97 348.93 343.22C341.68 343.47 308.43 327.97 308.43 327.97C308.43 327.97 306.09 331.05 303.48 334.29C300.64 337.84 297.48 341.59 296.68 341.72C295.18 341.97 271.93 345.22 271.93 345.22L256.18 337.97L254.68 331.44L253.97 328.44L257.46 324.55L262.05 319.44L270.66 309.62L270.71 309.56L282.2 297.07L282.28 296.99L289.64 293.99L291.06 293.41H291.29C292.17 293.26 295.55 292.95 300.08 295.51C303.234 297.297 306.738 298.381 310.35 298.69C317.54 299.203 324.348 302.119 329.68 306.97L366.68 326.44L424.93 347.44C424.93 347.44 429.93 318.69 438.43 324.94C446.93 331.19 442.18 354.97 442.18 354.97Z" fill="#CC818C"/>
<path opacity="0.1" d="M303.48 334.29C300.64 337.84 297.48 341.59 296.68 341.72C295.18 341.97 271.93 345.22 271.93 345.22L256.18 337.97L254.68 331.44L253.97 333.19L246.47 341.19L241.68 351.44L230.48 357.94L218.43 351.69L212.93 343.69L214.18 332.23C214.81 330.87 216.53 327.17 218.1 324.05C218.841 322.331 219.774 320.701 220.88 319.19C221.88 318.53 222.93 311.44 222.93 311.44C227.47 298.35 242.68 296.34 242.68 296.34L245.11 298.62L246.17 299.72C245.74 299.65 246.25 298.72 245.7 298.87C244.82 299.12 244.43 300.45 243.3 301.18C237.15 305.18 227.54 314.51 223.74 318.94C222.82 320.01 221.87 321.06 220.9 322.08C215.41 327.89 216.42 335.59 216.42 335.59C215.05 341.59 227.17 346.09 227.17 346.09C230.55 340.47 253.42 324.97 253.42 324.97L268.82 307.72C273.54 299.5 282.82 294.07 288 291.53C290.29 290.41 291.79 289.85 291.79 289.85L297.55 292.31C296.029 291.903 294.42 291.972 292.94 292.51C292.09 292.773 291.263 293.108 290.47 293.51C290.17 293.66 289.87 293.82 289.59 293.99C288.015 294.905 286.534 295.973 285.17 297.18L272.23 311.31C262.34 322.1 269.79 339.55 284.42 339.8H284.55C293.49 341.86 299.9 337.72 303.48 334.29Z" fill="black"/>
<path opacity="0.1" d="M278.3 651.59C278.3 651.59 276.45 657.31 273.9 665.04C264.12 665.77 247.97 661.99 241.74 660.39L243.06 653.72L278.3 651.59Z" fill="black"/>
<path d="M246.18 299.72L242.98 296.44C242.98 296.44 231.43 298.02 224.26 310.36C224.26 310.36 220.91 319.61 219.88 320.27C218.85 320.93 212.93 333.86 212.93 333.86C212.93 333.86 205.85 354.77 211.76 367.61C217.67 380.45 217.93 386.36 217.93 386.36L222.35 405.36L224.18 422.02L240.06 461.27L254.68 482.1C254.68 482.1 253.31 497.47 250.31 499.6C247.31 501.73 248.68 512.72 248.68 512.72L246.81 541.6C246.81 541.6 240.93 550.22 240.56 564.22C240.19 578.22 238.06 582.22 238.06 582.22C238.06 582.22 237.06 593.97 239.81 599.35C242.56 604.73 235.43 610.35 235.43 610.35L241.56 631.22L239.18 657.72C239.18 657.72 267.43 665.6 277.93 662.35C288.43 659.1 293.93 661.35 293.93 661.35L312.68 585.44L319.18 525.82C319.18 525.82 319.56 483.57 325.18 470.69C330 459.69 323.68 420.5 301.97 413.1C297.44 411.56 295.14 406.42 291.27 403.6C287.81 401.09 282.16 395.16 284.93 384.44C288.81 369.44 298.56 345.82 298.56 345.82L305.78 331.44C305.78 331.44 297.93 344.14 283.56 340.89H283.43C268.8 340.63 261.35 323.18 271.24 312.4L284.18 298.26C284.18 298.26 291.31 291.69 296.56 293.35L290.81 290.89C290.81 290.89 274.62 296.89 267.81 308.76L252.41 326.01C252.41 326.01 229.56 341.44 226.18 347.1C226.18 347.1 214.06 342.6 215.43 336.6C215.43 336.6 214.43 328.89 219.91 323.08C220.91 322.08 221.83 321.02 222.75 319.95C227.68 314.19 241.31 298.91 246.18 299.72Z" fill="#F16977"/>
<path opacity="0.1" d="M248.06 402.72C248.06 402.72 244.43 429.1 247.18 434.47L248.06 402.72Z" fill="black"/>
<path opacity="0.1" d="M250.43 412.97L254.31 428.1C254.31 428.1 255.68 418.85 250.43 412.97Z" fill="black"/>
<path opacity="0.1" d="M227.43 409.44C227.43 409.44 235.18 447.94 243.68 459.57Z" fill="black"/>
<path opacity="0.1" d="M282.06 455.85C282.06 455.85 268.81 468.35 263.68 467.44C263.68 467.44 284.06 468.32 290.43 457.57C290.43 457.6 286.31 454.6 282.06 455.85Z" fill="black"/>
<path opacity="0.1" d="M300.43 454.85C300.43 454.85 283.43 467.22 280.06 468.35C280.06 468.35 298.43 463.1 300.43 454.85Z" fill="black"/>
<path opacity="0.1" d="M242.93 362.97C242.93 362.97 234.43 373.85 230.18 372.6C230.18 372.6 240.56 372.97 242.93 362.97Z" fill="black"/>
<path opacity="0.1" d="M252.56 376.97C252.56 376.97 271.06 351.85 279.81 352.85C279.81 352.85 258.81 371.1 252.56 376.97Z" fill="black"/>
<path opacity="0.1" d="M278.18 367.83C278.18 367.83 266.43 373.72 267.68 375.44C268.93 377.16 278.18 367.83 278.18 367.83Z" fill="black"/>
<path opacity="0.1" d="M286.68 560.72C286.68 560.72 247.43 583.6 243.81 584.72C243.81 584.72 250.56 589.85 256.93 587.35C263.3 584.85 286.68 560.72 286.68 560.72Z" fill="black"/>
<path opacity="0.1" d="M253.81 608.35C253.81 608.35 238.06 606.72 238.68 611.85C239.3 616.98 253.81 608.35 253.81 608.35Z" fill="black"/>
<path opacity="0.1" d="M273.43 252.44C273.43 252.44 273.11 258.84 273.11 268.82C269.407 271.854 265.037 273.968 260.359 274.986C255.682 276.005 250.829 275.9 246.2 274.68C244.743 268.703 242.814 262.851 240.43 257.18L273.43 252.44Z" fill="black"/>
<path d="M253.93 273.73C270.636 273.73 284.18 260.187 284.18 243.48C284.18 226.773 270.636 213.23 253.93 213.23C237.223 213.23 223.68 226.773 223.68 243.48C223.68 260.187 237.223 273.73 253.93 273.73Z" fill="#CC818C"/>
<path opacity="0.1" d="M261.86 261.94C262.71 274.31 265.31 288.46 276.05 294.68C283.81 299.17 293.59 297.99 302.18 295.43C310.77 292.87 319.18 289.05 328.12 288.62C334.99 288.29 341.78 289.98 348.63 290.41C355.48 290.84 362.98 289.77 367.87 284.95C374.87 278.09 373.59 265.62 366.96 258.41C360.33 251.2 349.96 248.58 340.14 248.85C328.14 249.18 314.74 252.85 305.25 245.57C298.88 240.67 296.47 232.17 291.11 226.18C282.16 216.18 242.58 201.74 234.2 218.04C230.27 225.67 248.13 231.12 252.27 236.64C258.81 245.35 261.08 250.52 261.86 261.94Z" fill="black"/>
<path d="M262.79 260.87C263.65 273.25 266.24 287.4 276.98 293.61C284.74 298.1 294.52 296.92 303.11 294.37C311.7 291.82 320.11 287.99 329.06 287.56C335.92 287.23 342.71 288.91 349.57 289.35C356.43 289.79 363.91 288.71 368.8 283.89C375.8 277.02 374.52 264.56 367.89 257.35C361.26 250.14 350.89 247.52 341.08 247.79C329.08 248.11 315.67 251.79 306.18 244.5C299.81 239.6 297.4 231.11 292.04 225.11C283.09 215.11 243.51 200.68 235.13 216.98C231.2 224.6 249.06 230.05 253.21 235.58C259.74 244.28 262.01 249.44 262.79 260.87Z" fill="#331200"/>
<path opacity="0.1" d="M226.41 346.08C226.874 342.133 228.175 338.331 230.225 334.927C232.276 331.523 235.028 328.595 238.3 326.34" fill="black"/>
<path opacity="0.1" d="M339.83 502.72C339.737 503.7 339.498 504.661 339.12 505.57C337.81 509.496 336.233 513.328 334.4 517.04C337.07 516.81 339.27 514.71 340.4 512.29C341.388 509.8 341.933 507.157 342.01 504.48C342.109 503.643 342.132 502.8 342.08 501.96C342.01 501.18 341.51 498.2 340.22 498.73C339.18 499.17 339.85 501.93 339.83 502.72Z" fill="black"/>
<path opacity="0.1" d="M370.6 280.76C365.7 285.58 358.22 286.66 351.36 286.22C344.5 285.78 337.68 284.1 330.85 284.44C321.85 284.87 313.51 288.69 304.91 291.25C296.31 293.81 286.54 294.99 278.77 290.5C268.04 284.28 265.44 270.13 264.59 257.76C263.81 246.34 261.53 241.17 255 232.46C251.05 227.19 234.65 221.99 236.53 214.91C235.987 215.549 235.517 216.246 235.13 216.99C231.2 224.61 249.06 230.06 253.21 235.59C259.74 244.29 262.01 249.47 262.79 260.88C263.65 273.26 266.24 287.41 276.98 293.62C284.74 298.11 294.52 296.93 303.11 294.38C311.7 291.83 320.11 288 329.06 287.57C335.92 287.24 342.71 288.92 349.57 289.36C356.43 289.8 363.91 288.72 368.8 283.9C370.189 282.522 371.294 280.884 372.05 279.08C371.611 279.677 371.126 280.238 370.6 280.76Z" fill="black"/>
<path d="M224.24 371.69L220.57 379.69L232.24 377.36L224.24 371.69Z" fill="#CC818C"/>
<path opacity="0.1" d="M224.24 371.69L221.22 379.69H220.57L224.24 371.69Z" fill="black"/>
<path opacity="0.1" d="M513.02 734.8C535.663 734.8 554.02 732.279 554.02 729.17C554.02 726.061 535.663 723.54 513.02 723.54C490.376 723.54 472.02 726.061 472.02 729.17C472.02 732.279 490.376 734.8 513.02 734.8Z" fill="#A228FF"/>
<path opacity="0.1" d="M670.07 750.72C692.714 750.72 711.07 748.199 711.07 745.09C711.07 741.981 692.714 739.46 670.07 739.46C647.427 739.46 629.07 741.981 629.07 745.09C629.07 748.199 647.427 750.72 670.07 750.72Z" fill="#A228FF"/>
<path opacity="0.1" d="M855.06 729.17C877.703 729.17 896.06 726.65 896.06 723.54C896.06 720.431 877.703 717.91 855.06 717.91C832.416 717.91 814.06 720.431 814.06 723.54C814.06 726.65 832.416 729.17 855.06 729.17Z" fill="#A228FF"/>
<path opacity="0.1" d="M607.21 794.43C623.304 794.43 636.35 792.639 636.35 790.43C636.35 788.221 623.304 786.43 607.21 786.43C591.117 786.43 578.07 788.221 578.07 790.43C578.07 792.639 591.117 794.43 607.21 794.43Z" fill="#A228FF"/>
<path opacity="0.1" d="M770.21 790.43C786.304 790.43 799.35 788.639 799.35 786.43C799.35 784.221 786.304 782.43 770.21 782.43C754.117 782.43 741.07 784.221 741.07 786.43C741.07 788.639 754.117 790.43 770.21 790.43Z" fill="#A228FF"/>
<path d="M670.96 743.83C670.96 743.83 613.46 555.33 679.96 479.83C729.7 423.35 786.17 430.11 811.46 437.09C818.004 438.833 824.091 441.978 829.298 446.307C834.506 450.635 838.711 456.045 841.62 462.16C850.46 481.24 848.87 512.16 786.46 548.33C681.96 608.83 675.46 691.83 675.46 691.83L670.96 743.83Z" fill="#6CC8BE"/>
<path d="M802.461 463.83C802.461 463.83 632.961 516.83 670.961 743.83" stroke="#565987" stroke-miterlimit="10"/>
<path d="M703.46 482.83C703.46 482.83 726.79 498.56 719.38 522.19" stroke="#565987" stroke-miterlimit="10"/>
<path d="M785.46 496.83C785.46 496.83 771.19 482.31 753.82 490.32" stroke="#565987" stroke-miterlimit="10"/>
<path d="M718.46 569.83C718.46 569.83 693.4 557.11 686.92 573.04" stroke="#565987" stroke-miterlimit="10"/>
<path d="M656.46 596.33C656.46 596.33 675.27 594.83 675.61 603.83" stroke="#565987" stroke-miterlimit="10"/>
<path d="M668.68 745.33C668.68 745.33 736.02 608.33 754.52 611.33C763.31 612.75 767.36 621.4 769.19 630.08C771.449 641.316 770.149 652.977 765.47 663.44C755.92 685.35 730.25 726.98 668.68 745.33Z" fill="#6CC8BE"/>
<path d="M753.97 637.33C753.97 637.33 683.29 739.83 669.63 744.33" stroke="#565987" stroke-miterlimit="10"/>
<path d="M760.47 653.33H743.97" stroke="#565987" stroke-miterlimit="10"/>
<path d="M740.71 690.83L714.85 691.94" stroke="#565987" stroke-miterlimit="10"/>
<path d="M724.97 660.83L727.78 674.3" stroke="#565987" stroke-miterlimit="10"/>
<path d="M697.47 701.83L697.97 714.07" stroke="#565987" stroke-miterlimit="10"/>
<path d="M670.68 745.33C670.68 745.33 603.34 608.33 584.84 611.33C576.05 612.75 572 621.4 570.17 630.08C567.878 641.306 569.144 652.967 573.79 663.44C583.34 685.35 609.01 726.98 670.68 745.33Z" fill="#6CC8BE"/>
<path d="M585.29 637.33C585.29 637.33 655.97 739.83 669.63 744.33" stroke="#565987" stroke-miterlimit="10"/>
<path d="M578.78 653.33H595.28" stroke="#565987" stroke-miterlimit="10"/>
<path d="M598.55 690.83L624.41 691.94" stroke="#565987" stroke-miterlimit="10"/>
<path d="M614.281 660.83L611.48 674.3" stroke="#565987" stroke-miterlimit="10"/>
<path d="M641.78 701.83L641.28 714.07" stroke="#565987" stroke-miterlimit="10"/>
<path d="M786.26 777.32C788.098 775.829 789.438 773.813 790.1 771.54C790.59 769.24 789.61 766.49 787.42 765.65C784.96 764.71 782.33 766.41 780.34 768.13C778.35 769.85 776.06 771.82 773.45 771.45C774.79 770.234 775.792 768.69 776.358 766.971C776.925 765.252 777.035 763.415 776.68 761.64C776.572 760.903 776.26 760.21 775.78 759.64C774.42 758.18 771.94 758.81 770.3 759.96C765.1 763.62 763.65 770.68 763.63 777.04C763.1 774.74 763.54 772.35 763.53 770.04C763.52 767.73 762.87 765.04 760.89 763.82C759.667 763.143 758.288 762.798 756.89 762.82C754.55 762.74 751.95 762.97 750.35 764.68C748.35 766.8 748.88 770.37 750.61 772.68C752.34 774.99 754.96 776.48 757.37 778.1C759.313 779.248 760.968 780.825 762.21 782.71C762.357 782.971 762.478 783.245 762.57 783.53H777.22C780.499 781.877 783.54 779.788 786.26 777.32Z" fill="#6CC8BE"/>
<path d="M529.68 722.15C531.516 720.654 532.852 718.634 533.51 716.36C534.01 714.06 533.03 711.36 530.83 710.47C528.37 709.53 525.75 711.23 523.75 712.96C521.75 714.69 519.47 716.64 516.87 716.28C518.209 715.057 519.209 713.507 519.772 711.783C520.334 710.058 520.44 708.217 520.08 706.44C519.968 705.703 519.657 705.012 519.18 704.44C517.81 702.98 515.34 703.6 513.7 704.75C508.5 708.41 507.05 715.47 507.02 721.83C506.5 719.54 506.94 717.15 506.93 714.83C506.92 712.51 506.27 709.83 504.28 708.6C503.053 707.939 501.673 707.615 500.28 707.66C497.95 707.57 495.34 707.8 493.75 709.51C491.75 711.64 492.28 715.2 494 717.51C495.72 719.82 498.35 721.31 500.77 722.93C502.706 724.084 504.357 725.66 505.6 727.54C505.75 727.802 505.871 728.081 505.96 728.37H520.62C523.905 726.711 526.952 724.619 529.68 722.15Z" fill="#6CC8BE"/>
<path d="M615.17 777.32C617.008 775.829 618.348 773.813 619.01 771.54C619.5 769.24 618.52 766.49 616.33 765.65C613.87 764.71 611.24 766.41 609.25 768.13C607.26 769.85 604.97 771.82 602.36 771.45C603.702 770.235 604.706 768.692 605.274 766.973C605.842 765.253 605.954 763.416 605.6 761.64C605.492 760.903 605.18 760.21 604.7 759.64C603.34 758.18 600.86 758.81 599.22 759.96C594.02 763.62 592.57 770.68 592.55 777.04C592.02 774.74 592.46 772.35 592.45 770.04C592.44 767.73 591.79 765.04 589.81 763.82C588.587 763.143 587.207 762.798 585.81 762.82C583.47 762.74 580.87 762.97 579.27 764.68C577.27 766.8 577.8 770.37 579.53 772.68C581.26 774.99 583.88 776.48 586.29 778.1C588.233 779.248 589.888 780.825 591.13 782.71C591.277 782.971 591.398 783.245 591.49 783.53H606.14C609.415 781.876 612.453 779.787 615.17 777.32Z" fill="#6CC8BE"/>
<path d="M857.68 665.79C857.68 665.79 863.18 672.97 855.15 683.79C847.12 694.61 840.5 703.79 843.15 710.55C843.15 710.55 855.27 690.41 865.15 690.13C875.03 689.85 868.57 677.9 857.68 665.79Z" fill="#6CC8BE"/>
<path opacity="0.1" d="M857.68 665.79C858.161 666.481 858.538 667.239 858.8 668.04C868.43 679.34 873.55 689.89 864.3 690.16C855.69 690.4 845.36 705.81 842.88 709.7C842.961 709.998 843.058 710.292 843.17 710.58C843.17 710.58 855.29 690.44 865.17 690.16C875.05 689.88 868.57 677.9 857.68 665.79Z" fill="black"/>
<path d="M867.93 674.94C867.93 677.47 867.65 679.52 867.3 679.52C866.95 679.52 866.68 677.44 866.68 674.94C866.68 672.44 867.03 673.61 867.38 673.61C867.73 673.61 867.93 672.44 867.93 674.94Z" fill="#FFD037"/>
<path d="M871.44 677.96C869.22 679.17 867.28 679.9 867.12 679.6C866.96 679.3 868.61 678.06 870.83 676.85C873.05 675.64 872.18 676.52 872.34 676.85C872.5 677.18 873.68 676.75 871.44 677.96Z" fill="#FFD037"/>
<path d="M828.68 665.79C828.68 665.79 823.18 672.97 831.21 683.79C839.24 694.61 845.86 703.79 843.21 710.55C843.21 710.55 831.1 690.41 821.21 690.13C811.32 689.85 817.86 677.9 828.68 665.79Z" fill="#6CC8BE"/>
<path opacity="0.1" d="M828.68 665.79C828.198 666.482 827.818 667.24 827.55 668.04C817.93 679.34 812.81 689.89 822.05 690.16C830.67 690.4 841.05 705.81 843.48 709.7C843.4 710 843.3 710.294 843.18 710.58C843.18 710.58 831.07 690.44 821.18 690.16C811.29 689.88 817.86 677.9 828.68 665.79Z" fill="black"/>
<path d="M818.49 674.94C818.49 677.47 818.78 679.52 819.13 679.52C819.48 679.52 819.76 677.47 819.76 674.94C819.76 672.41 819.41 673.61 819.06 673.61C818.71 673.61 818.49 672.44 818.49 674.94Z" fill="#FFD037"/>
<path d="M814.99 677.96C817.21 679.17 819.14 679.9 819.31 679.6C819.48 679.3 817.82 678.06 815.6 676.85C813.38 675.64 814.25 676.52 814.08 676.85C813.91 677.18 812.77 676.75 814.99 677.96Z" fill="#FFD037"/>
<path d="M820.24 709.64C820.24 709.64 835.6 709.17 840.24 705.87C844.88 702.57 863.87 698.64 865.02 703.93C866.17 709.22 888.1 730.22 870.76 730.36C853.42 730.5 830.47 727.66 825.85 724.84C821.23 722.02 820.24 709.64 820.24 709.64Z" fill="#3F3D56"/>
<path opacity="0.2" d="M871.06 728.52C853.72 728.66 830.76 725.82 826.14 723C822.63 720.86 821.22 713.17 820.76 709.62H820.24C820.24 709.62 821.24 722.01 825.84 724.82C830.44 727.63 853.41 730.48 870.75 730.34C875.75 730.34 877.48 728.52 877.39 725.88C876.68 727.49 874.78 728.49 871.06 728.52Z" fill="black"/>
</g>
<defs>
<linearGradient id="paint0_linear_374_171" x1="368.22" y1="782.15" x2="368.22" y2="96.9699" gradientUnits="userSpaceOnUse">
<stop stop-color="#808080" stop-opacity="0.25"/>
<stop offset="0.54" stop-color="#808080" stop-opacity="0.12"/>
<stop offset="1" stop-color="#808080" stop-opacity="0.1"/>
</linearGradient>
<clipPath id="clip0_374_171">
<rect width="1027.35" height="798.89" fill="white"/>
</clipPath>
</defs>
</svg>
